<mxfile host="app.diagrams.net" modified="2020-12-30T12:01:22.530Z" agent="5.0 (Windows NT 10.0; Win64; x64) AppleWebKit/537.36 (KHTML, like Gecko) Chrome/87.0.4280.88 Safari/537.36" etag="EQVCDT6oQF1XWXVWVodG" version="14.1.3" type="github" pages="2">
  <diagram id="MAGGUAX34gYaEpGT8_eK" name="Page-1">
    <mxGraphModel dx="1021" dy="632" grid="1" gridSize="10" guides="1" tooltips="1" connect="1" arrows="1" fold="1" page="1" pageScale="1" pageWidth="850" pageHeight="1100" math="0" shadow="0">
      <root>
        <mxCell id="0" />
        <mxCell id="1" parent="0" />
        <mxCell id="7XE_0lH-xWlZTf0cAS5R-12" value="" style="edgeStyle=none;rounded=0;orthogonalLoop=1;jettySize=auto;html=1;fontSize=21;" edge="1" parent="1" source="7XE_0lH-xWlZTf0cAS5R-1" target="7XE_0lH-xWlZTf0cAS5R-2">
          <mxGeometry relative="1" as="geometry" />
        </mxCell>
        <mxCell id="7XE_0lH-xWlZTf0cAS5R-1" value="&lt;font style=&quot;font-size: 14px&quot;&gt;Start&lt;/font&gt;" style="strokeWidth=2;html=1;shape=mxgraph.flowchart.start_1;whiteSpace=wrap;fontSize=21;" vertex="1" parent="1">
          <mxGeometry x="91.87" y="40" width="80" height="40" as="geometry" />
        </mxCell>
        <mxCell id="7XE_0lH-xWlZTf0cAS5R-13" value="" style="edgeStyle=none;rounded=0;orthogonalLoop=1;jettySize=auto;html=1;fontSize=21;" edge="1" parent="1" source="7XE_0lH-xWlZTf0cAS5R-2" target="7XE_0lH-xWlZTf0cAS5R-3">
          <mxGeometry relative="1" as="geometry" />
        </mxCell>
        <mxCell id="7XE_0lH-xWlZTf0cAS5R-2" value="&lt;font style=&quot;font-size: 14px&quot;&gt;input y/n&lt;br&gt;to play&lt;/font&gt;" style="rounded=1;whiteSpace=wrap;html=1;absoluteArcSize=1;arcSize=14;strokeWidth=2;fontSize=21;" vertex="1" parent="1">
          <mxGeometry x="91.87" y="110" width="80" height="50" as="geometry" />
        </mxCell>
        <mxCell id="7XE_0lH-xWlZTf0cAS5R-14" value="" style="edgeStyle=none;rounded=0;orthogonalLoop=1;jettySize=auto;html=1;fontSize=21;" edge="1" parent="1" source="7XE_0lH-xWlZTf0cAS5R-3" target="7XE_0lH-xWlZTf0cAS5R-7">
          <mxGeometry relative="1" as="geometry" />
        </mxCell>
        <mxCell id="7XE_0lH-xWlZTf0cAS5R-22" value="" style="edgeStyle=none;rounded=0;orthogonalLoop=1;jettySize=auto;html=1;fontSize=21;" edge="1" parent="1" source="7XE_0lH-xWlZTf0cAS5R-3">
          <mxGeometry relative="1" as="geometry">
            <mxPoint x="131.62" y="280" as="targetPoint" />
          </mxGeometry>
        </mxCell>
        <mxCell id="7XE_0lH-xWlZTf0cAS5R-3" value="&lt;font style=&quot;font-size: 15px&quot;&gt;play?&lt;/font&gt;" style="strokeWidth=2;html=1;shape=mxgraph.flowchart.decision;whiteSpace=wrap;fontSize=21;" vertex="1" parent="1">
          <mxGeometry x="85.62" y="190" width="92.5" height="60" as="geometry" />
        </mxCell>
        <mxCell id="7XE_0lH-xWlZTf0cAS5R-4" value="n" style="text;html=1;resizable=0;autosize=1;align=center;verticalAlign=middle;points=[];fillColor=none;strokeColor=none;rounded=0;fontSize=21;" vertex="1" parent="1">
          <mxGeometry x="191.87" y="190" width="30" height="30" as="geometry" />
        </mxCell>
        <mxCell id="7XE_0lH-xWlZTf0cAS5R-7" value="&lt;font style=&quot;font-size: 15px&quot;&gt;end&lt;/font&gt;" style="ellipse;whiteSpace=wrap;html=1;fontSize=21;" vertex="1" parent="1">
          <mxGeometry x="241.87" y="200" width="80" height="40" as="geometry" />
        </mxCell>
        <mxCell id="7XE_0lH-xWlZTf0cAS5R-11" value="y" style="text;html=1;resizable=0;autosize=1;align=center;verticalAlign=middle;points=[];fillColor=none;strokeColor=none;rounded=0;fontSize=21;" vertex="1" parent="1">
          <mxGeometry x="135.62" y="240" width="30" height="30" as="geometry" />
        </mxCell>
        <mxCell id="7XE_0lH-xWlZTf0cAS5R-25" value="" style="edgeStyle=none;rounded=0;orthogonalLoop=1;jettySize=auto;html=1;fontSize=21;" edge="1" parent="1" source="7XE_0lH-xWlZTf0cAS5R-23" target="7XE_0lH-xWlZTf0cAS5R-24">
          <mxGeometry relative="1" as="geometry" />
        </mxCell>
        <mxCell id="7XE_0lH-xWlZTf0cAS5R-23" value="&lt;span style=&quot;font-size: 14px&quot;&gt;random 2 cards and score user and dealer&lt;/span&gt;" style="rounded=1;whiteSpace=wrap;html=1;absoluteArcSize=1;arcSize=14;strokeWidth=2;fontSize=21;" vertex="1" parent="1">
          <mxGeometry x="60" y="280" width="143.75" height="50" as="geometry" />
        </mxCell>
        <mxCell id="7XE_0lH-xWlZTf0cAS5R-27" value="" style="edgeStyle=none;rounded=0;orthogonalLoop=1;jettySize=auto;html=1;fontSize=21;" edge="1" parent="1" source="7XE_0lH-xWlZTf0cAS5R-24" target="7XE_0lH-xWlZTf0cAS5R-26">
          <mxGeometry relative="1" as="geometry" />
        </mxCell>
        <mxCell id="7XE_0lH-xWlZTf0cAS5R-33" value="" style="edgeStyle=none;rounded=0;orthogonalLoop=1;jettySize=auto;html=1;fontSize=21;" edge="1" parent="1" source="7XE_0lH-xWlZTf0cAS5R-24" target="7XE_0lH-xWlZTf0cAS5R-32">
          <mxGeometry relative="1" as="geometry" />
        </mxCell>
        <mxCell id="7XE_0lH-xWlZTf0cAS5R-24" value="&lt;font style=&quot;font-size: 15px&quot;&gt;user blackjack?&lt;/font&gt;" style="rhombus;whiteSpace=wrap;html=1;rounded=1;fontSize=21;strokeWidth=2;arcSize=14;" vertex="1" parent="1">
          <mxGeometry x="66.55000000000001" y="360" width="130.63" height="80" as="geometry" />
        </mxCell>
        <mxCell id="7XE_0lH-xWlZTf0cAS5R-30" value="" style="edgeStyle=none;rounded=0;orthogonalLoop=1;jettySize=auto;html=1;fontSize=21;" edge="1" parent="1" source="7XE_0lH-xWlZTf0cAS5R-26">
          <mxGeometry relative="1" as="geometry">
            <mxPoint x="425.6199999999999" y="400" as="targetPoint" />
          </mxGeometry>
        </mxCell>
        <mxCell id="7XE_0lH-xWlZTf0cAS5R-40" value="" style="edgeStyle=elbowEdgeStyle;rounded=0;orthogonalLoop=1;jettySize=auto;elbow=vertical;html=1;fontSize=14;" edge="1" parent="1" source="7XE_0lH-xWlZTf0cAS5R-26" target="7XE_0lH-xWlZTf0cAS5R-39">
          <mxGeometry relative="1" as="geometry" />
        </mxCell>
        <mxCell id="7XE_0lH-xWlZTf0cAS5R-26" value="&lt;font style=&quot;font-size: 15px&quot;&gt;dealer blackjack?&lt;/font&gt;" style="rhombus;whiteSpace=wrap;html=1;rounded=1;fontSize=21;strokeWidth=2;arcSize=14;" vertex="1" parent="1">
          <mxGeometry x="241.87" y="360" width="130.63" height="80" as="geometry" />
        </mxCell>
        <mxCell id="7XE_0lH-xWlZTf0cAS5R-28" value="n" style="text;html=1;resizable=0;autosize=1;align=center;verticalAlign=middle;points=[];fillColor=none;strokeColor=none;rounded=0;fontSize=21;" vertex="1" parent="1">
          <mxGeometry x="197.18" y="370" width="30" height="30" as="geometry" />
        </mxCell>
        <mxCell id="7XE_0lH-xWlZTf0cAS5R-31" value="n" style="text;html=1;resizable=0;autosize=1;align=center;verticalAlign=middle;points=[];fillColor=none;strokeColor=none;rounded=0;fontSize=21;" vertex="1" parent="1">
          <mxGeometry x="385.62" y="370" width="30" height="30" as="geometry" />
        </mxCell>
        <mxCell id="7XE_0lH-xWlZTf0cAS5R-32" value="result and&amp;nbsp;&lt;br&gt;user win" style="whiteSpace=wrap;html=1;rounded=1;fontSize=14;strokeWidth=2;arcSize=14;" vertex="1" parent="1">
          <mxGeometry x="85.62" y="470" width="88.14" height="40" as="geometry" />
        </mxCell>
        <mxCell id="7XE_0lH-xWlZTf0cAS5R-34" value="" style="shape=partialRectangle;whiteSpace=wrap;html=1;top=0;left=0;fillColor=none;fontSize=14;rotation=90;" vertex="1" parent="1">
          <mxGeometry x="-115.82" y="286.69" width="353.59" height="40.54" as="geometry" />
        </mxCell>
        <mxCell id="7XE_0lH-xWlZTf0cAS5R-35" value="" style="endArrow=classic;html=1;fontSize=14;" edge="1" parent="1">
          <mxGeometry width="50" height="50" relative="1" as="geometry">
            <mxPoint x="40" y="130" as="sourcePoint" />
            <mxPoint x="90" y="130" as="targetPoint" />
          </mxGeometry>
        </mxCell>
        <mxCell id="7XE_0lH-xWlZTf0cAS5R-38" value="y" style="text;html=1;resizable=0;autosize=1;align=center;verticalAlign=middle;points=[];fillColor=none;strokeColor=none;rounded=0;fontSize=21;" vertex="1" parent="1">
          <mxGeometry x="130" y="430" width="30" height="30" as="geometry" />
        </mxCell>
        <mxCell id="7XE_0lH-xWlZTf0cAS5R-39" value="&lt;font style=&quot;font-size: 15px&quot;&gt;result and dealer win&lt;/font&gt;" style="whiteSpace=wrap;html=1;rounded=1;fontSize=21;strokeWidth=2;arcSize=14;" vertex="1" parent="1">
          <mxGeometry x="260.77" y="465" width="92.82" height="45" as="geometry" />
        </mxCell>
        <mxCell id="7XE_0lH-xWlZTf0cAS5R-41" value="" style="endArrow=none;html=1;fontSize=14;" edge="1" parent="1">
          <mxGeometry width="50" height="50" relative="1" as="geometry">
            <mxPoint x="40" y="540" as="sourcePoint" />
            <mxPoint x="310" y="540" as="targetPoint" />
          </mxGeometry>
        </mxCell>
        <mxCell id="7XE_0lH-xWlZTf0cAS5R-42" value="" style="endArrow=classic;html=1;fontSize=14;" edge="1" parent="1">
          <mxGeometry width="50" height="50" relative="1" as="geometry">
            <mxPoint x="306.59" y="505" as="sourcePoint" />
            <mxPoint x="307" y="540" as="targetPoint" />
          </mxGeometry>
        </mxCell>
        <mxCell id="7XE_0lH-xWlZTf0cAS5R-43" value="" style="endArrow=none;html=1;fontSize=14;" edge="1" parent="1">
          <mxGeometry width="50" height="50" relative="1" as="geometry">
            <mxPoint x="40" y="540" as="sourcePoint" />
            <mxPoint x="40" y="480" as="targetPoint" />
          </mxGeometry>
        </mxCell>
        <mxCell id="7XE_0lH-xWlZTf0cAS5R-46" value="" style="edgeStyle=elbowEdgeStyle;rounded=0;orthogonalLoop=1;jettySize=auto;elbow=vertical;html=1;fontSize=14;" edge="1" parent="1" source="7XE_0lH-xWlZTf0cAS5R-44">
          <mxGeometry relative="1" as="geometry">
            <mxPoint x="480" y="465" as="targetPoint" />
          </mxGeometry>
        </mxCell>
        <mxCell id="7XE_0lH-xWlZTf0cAS5R-44" value="input another card&lt;br&gt;y/n" style="rounded=1;whiteSpace=wrap;html=1;fontSize=14;" vertex="1" parent="1">
          <mxGeometry x="430" y="370" width="100" height="50" as="geometry" />
        </mxCell>
        <mxCell id="zh9d74h6_abLfL8RHgGb-1" value="" style="edgeStyle=elbowEdgeStyle;rounded=0;orthogonalLoop=1;jettySize=auto;elbow=vertical;html=1;fontSize=14;" edge="1" parent="1" source="7XE_0lH-xWlZTf0cAS5R-47" target="7XE_0lH-xWlZTf0cAS5R-48">
          <mxGeometry relative="1" as="geometry" />
        </mxCell>
        <mxCell id="7XE_0lH-xWlZTf0cAS5R-47" value="another card?" style="rhombus;whiteSpace=wrap;html=1;fontSize=14;" vertex="1" parent="1">
          <mxGeometry x="425" y="465" width="110" height="80" as="geometry" />
        </mxCell>
        <mxCell id="7XE_0lH-xWlZTf0cAS5R-48" value="add 1 random cards to user&amp;nbsp; and score" style="rounded=1;whiteSpace=wrap;html=1;fontSize=14;" vertex="1" parent="1">
          <mxGeometry x="430" y="580" width="100" height="50" as="geometry" />
        </mxCell>
        <mxCell id="7XE_0lH-xWlZTf0cAS5R-49" value="" style="endArrow=classic;html=1;fontSize=14;" edge="1" parent="1">
          <mxGeometry width="50" height="50" relative="1" as="geometry">
            <mxPoint x="479.40999999999997" y="545" as="sourcePoint" />
            <mxPoint x="479" y="580" as="targetPoint" />
          </mxGeometry>
        </mxCell>
        <mxCell id="zh9d74h6_abLfL8RHgGb-2" value="" style="edgeStyle=elbowEdgeStyle;rounded=0;orthogonalLoop=1;jettySize=auto;elbow=vertical;html=1;fontSize=14;" edge="1" parent="1">
          <mxGeometry relative="1" as="geometry">
            <mxPoint x="479.41" y="630" as="sourcePoint" />
            <mxPoint x="479.41" y="665" as="targetPoint" />
          </mxGeometry>
        </mxCell>
        <mxCell id="zh9d74h6_abLfL8RHgGb-3" value="user score &amp;gt; 21?" style="rhombus;whiteSpace=wrap;html=1;fontSize=14;" vertex="1" parent="1">
          <mxGeometry x="420" y="667" width="120" height="70" as="geometry" />
        </mxCell>
        <mxCell id="zh9d74h6_abLfL8RHgGb-4" value="result and user lose" style="rounded=1;whiteSpace=wrap;html=1;fontSize=14;" vertex="1" parent="1">
          <mxGeometry x="431" y="770" width="104" height="40" as="geometry" />
        </mxCell>
        <mxCell id="zh9d74h6_abLfL8RHgGb-5" value="" style="endArrow=classic;html=1;fontSize=14;exitX=0.5;exitY=1;exitDx=0;exitDy=0;" edge="1" parent="1" source="zh9d74h6_abLfL8RHgGb-3">
          <mxGeometry width="50" height="50" relative="1" as="geometry">
            <mxPoint x="500" y="740" as="sourcePoint" />
            <mxPoint x="480" y="770" as="targetPoint" />
          </mxGeometry>
        </mxCell>
        <mxCell id="zh9d74h6_abLfL8RHgGb-7" value="" style="endArrow=none;html=1;fontSize=14;" edge="1" parent="1">
          <mxGeometry width="50" height="50" relative="1" as="geometry">
            <mxPoint x="40.000000000000014" y="790" as="sourcePoint" />
            <mxPoint x="40" y="540" as="targetPoint" />
          </mxGeometry>
        </mxCell>
        <mxCell id="zh9d74h6_abLfL8RHgGb-9" value="y" style="text;html=1;resizable=0;autosize=1;align=center;verticalAlign=middle;points=[];fillColor=none;strokeColor=none;rounded=0;fontSize=21;" vertex="1" parent="1">
          <mxGeometry x="450" y="540" width="30" height="30" as="geometry" />
        </mxCell>
        <mxCell id="zh9d74h6_abLfL8RHgGb-10" value="y" style="text;html=1;resizable=0;autosize=1;align=center;verticalAlign=middle;points=[];fillColor=none;strokeColor=none;rounded=0;fontSize=21;" vertex="1" parent="1">
          <mxGeometry x="440" y="737" width="30" height="30" as="geometry" />
        </mxCell>
        <mxCell id="zh9d74h6_abLfL8RHgGb-11" value="both final hand and score" style="rounded=1;whiteSpace=wrap;html=1;fontSize=14;" vertex="1" parent="1">
          <mxGeometry x="570" y="480" width="120" height="60" as="geometry" />
        </mxCell>
        <mxCell id="zh9d74h6_abLfL8RHgGb-12" value="user = dealer" style="rhombus;whiteSpace=wrap;html=1;fontSize=14;" vertex="1" parent="1">
          <mxGeometry x="580" y="355" width="120" height="80" as="geometry" />
        </mxCell>
        <mxCell id="zh9d74h6_abLfL8RHgGb-13" value="draw" style="rounded=1;whiteSpace=wrap;html=1;fontSize=14;" vertex="1" parent="1">
          <mxGeometry x="595" y="280" width="90" height="33" as="geometry" />
        </mxCell>
        <mxCell id="zh9d74h6_abLfL8RHgGb-14" value="" style="endArrow=classic;html=1;fontSize=14;exitX=0.5;exitY=0;exitDx=0;exitDy=0;" edge="1" parent="1" source="zh9d74h6_abLfL8RHgGb-12">
          <mxGeometry width="50" height="50" relative="1" as="geometry">
            <mxPoint x="590" y="363" as="sourcePoint" />
            <mxPoint x="640" y="313" as="targetPoint" />
          </mxGeometry>
        </mxCell>
        <mxCell id="zh9d74h6_abLfL8RHgGb-15" value="" style="endArrow=classic;html=1;fontSize=14;exitX=0.5;exitY=0;exitDx=0;exitDy=0;" edge="1" parent="1">
          <mxGeometry width="50" height="50" relative="1" as="geometry">
            <mxPoint x="639.41" y="477" as="sourcePoint" />
            <mxPoint x="639.41" y="435" as="targetPoint" />
          </mxGeometry>
        </mxCell>
        <mxCell id="zh9d74h6_abLfL8RHgGb-16" value="" style="endArrow=classic;html=1;fontSize=14;exitX=0.5;exitY=0;exitDx=0;exitDy=0;" edge="1" parent="1">
          <mxGeometry width="50" height="50" relative="1" as="geometry">
            <mxPoint x="534.9999999999999" y="505" as="sourcePoint" />
            <mxPoint x="570" y="505" as="targetPoint" />
          </mxGeometry>
        </mxCell>
        <mxCell id="zh9d74h6_abLfL8RHgGb-17" value="n" style="text;html=1;resizable=0;autosize=1;align=center;verticalAlign=middle;points=[];fillColor=none;strokeColor=none;rounded=0;fontSize=21;" vertex="1" parent="1">
          <mxGeometry x="530" y="475" width="30" height="30" as="geometry" />
        </mxCell>
        <mxCell id="zh9d74h6_abLfL8RHgGb-18" value="y" style="text;html=1;resizable=0;autosize=1;align=center;verticalAlign=middle;points=[];fillColor=none;strokeColor=none;rounded=0;fontSize=21;" vertex="1" parent="1">
          <mxGeometry x="610" y="325" width="30" height="30" as="geometry" />
        </mxCell>
        <mxCell id="zh9d74h6_abLfL8RHgGb-19" value="" style="endArrow=none;html=1;fontSize=14;exitX=1;exitY=0.5;exitDx=0;exitDy=0;entryX=0;entryY=0.5;entryDx=0;entryDy=0;" edge="1" parent="1" source="7XE_0lH-xWlZTf0cAS5R-2" target="zh9d74h6_abLfL8RHgGb-13">
          <mxGeometry width="50" height="50" relative="1" as="geometry">
            <mxPoint x="500" y="340" as="sourcePoint" />
            <mxPoint x="590" y="300" as="targetPoint" />
          </mxGeometry>
        </mxCell>
        <mxCell id="zh9d74h6_abLfL8RHgGb-20" value="user &amp;lt; dealer" style="rhombus;whiteSpace=wrap;html=1;fontSize=14;" vertex="1" parent="1">
          <mxGeometry x="730" y="355" width="120" height="80" as="geometry" />
        </mxCell>
        <mxCell id="zh9d74h6_abLfL8RHgGb-21" value="" style="endArrow=classic;html=1;fontSize=14;entryX=0;entryY=0.5;entryDx=0;entryDy=0;exitX=1;exitY=0.5;exitDx=0;exitDy=0;" edge="1" parent="1" source="zh9d74h6_abLfL8RHgGb-12" target="zh9d74h6_abLfL8RHgGb-20">
          <mxGeometry width="50" height="50" relative="1" as="geometry">
            <mxPoint x="500" y="340" as="sourcePoint" />
            <mxPoint x="550" y="290" as="targetPoint" />
          </mxGeometry>
        </mxCell>
        <mxCell id="zh9d74h6_abLfL8RHgGb-22" value="" style="endArrow=classic;html=1;fontSize=14;exitX=0.5;exitY=0;exitDx=0;exitDy=0;" edge="1" parent="1">
          <mxGeometry width="50" height="50" relative="1" as="geometry">
            <mxPoint x="789.41" y="355" as="sourcePoint" />
            <mxPoint x="789.41" y="313" as="targetPoint" />
          </mxGeometry>
        </mxCell>
        <mxCell id="zh9d74h6_abLfL8RHgGb-23" value="y" style="text;html=1;resizable=0;autosize=1;align=center;verticalAlign=middle;points=[];fillColor=none;strokeColor=none;rounded=0;fontSize=21;" vertex="1" parent="1">
          <mxGeometry x="760" y="313" width="30" height="30" as="geometry" />
        </mxCell>
        <mxCell id="zh9d74h6_abLfL8RHgGb-24" value="user lose" style="rounded=1;whiteSpace=wrap;html=1;fontSize=14;" vertex="1" parent="1">
          <mxGeometry x="745" y="270" width="90" height="33" as="geometry" />
        </mxCell>
        <mxCell id="zh9d74h6_abLfL8RHgGb-25" value="" style="endArrow=none;html=1;fontSize=14;entryX=0.5;entryY=0;entryDx=0;entryDy=0;exitX=1;exitY=0.5;exitDx=0;exitDy=0;" edge="1" parent="1" source="7XE_0lH-xWlZTf0cAS5R-2" target="zh9d74h6_abLfL8RHgGb-24">
          <mxGeometry width="50" height="50" relative="1" as="geometry">
            <mxPoint x="500" y="340" as="sourcePoint" />
            <mxPoint x="550" y="290" as="targetPoint" />
          </mxGeometry>
        </mxCell>
        <mxCell id="zh9d74h6_abLfL8RHgGb-26" value="n" style="text;html=1;resizable=0;autosize=1;align=center;verticalAlign=middle;points=[];fillColor=none;strokeColor=none;rounded=0;fontSize=21;" vertex="1" parent="1">
          <mxGeometry x="760" y="435" width="30" height="30" as="geometry" />
        </mxCell>
        <mxCell id="zh9d74h6_abLfL8RHgGb-27" value="" style="endArrow=classic;html=1;fontSize=14;exitX=1.065;exitY=-0.037;exitDx=0;exitDy=0;exitPerimeter=0;" edge="1" parent="1" source="zh9d74h6_abLfL8RHgGb-26">
          <mxGeometry width="50" height="50" relative="1" as="geometry">
            <mxPoint x="500" y="340" as="sourcePoint" />
            <mxPoint x="792" y="480" as="targetPoint" />
          </mxGeometry>
        </mxCell>
        <mxCell id="zh9d74h6_abLfL8RHgGb-28" value="user win" style="rounded=1;whiteSpace=wrap;html=1;fontSize=14;" vertex="1" parent="1">
          <mxGeometry x="745" y="480" width="90" height="33" as="geometry" />
        </mxCell>
        <mxCell id="zh9d74h6_abLfL8RHgGb-29" value="" style="endArrow=none;html=1;fontSize=14;entryX=0.5;entryY=1;entryDx=0;entryDy=0;" edge="1" parent="1" target="zh9d74h6_abLfL8RHgGb-28">
          <mxGeometry width="50" height="50" relative="1" as="geometry">
            <mxPoint x="790" y="840" as="sourcePoint" />
            <mxPoint x="550" y="640" as="targetPoint" />
          </mxGeometry>
        </mxCell>
        <mxCell id="zh9d74h6_abLfL8RHgGb-30" value="" style="endArrow=none;html=1;fontSize=14;" edge="1" parent="1">
          <mxGeometry width="50" height="50" relative="1" as="geometry">
            <mxPoint x="790" y="840" as="sourcePoint" />
            <mxPoint x="40" y="840" as="targetPoint" />
          </mxGeometry>
        </mxCell>
        <mxCell id="zh9d74h6_abLfL8RHgGb-31" value="" style="endArrow=none;html=1;fontSize=14;" edge="1" parent="1">
          <mxGeometry width="50" height="50" relative="1" as="geometry">
            <mxPoint x="40" y="840" as="sourcePoint" />
            <mxPoint x="40" y="790" as="targetPoint" />
          </mxGeometry>
        </mxCell>
        <mxCell id="zh9d74h6_abLfL8RHgGb-33" value="result and user win" style="rounded=1;whiteSpace=wrap;html=1;fontSize=14;" vertex="1" parent="1">
          <mxGeometry x="568" y="870" width="104" height="40" as="geometry" />
        </mxCell>
        <mxCell id="zh9d74h6_abLfL8RHgGb-39" value="n" style="text;html=1;resizable=0;autosize=1;align=center;verticalAlign=middle;points=[];fillColor=none;strokeColor=none;rounded=0;fontSize=21;" vertex="1" parent="1">
          <mxGeometry x="535" y="667" width="30" height="30" as="geometry" />
        </mxCell>
        <mxCell id="zh9d74h6_abLfL8RHgGb-52" value="" style="endArrow=classic;html=1;fontSize=14;exitX=0.5;exitY=1;exitDx=0;exitDy=0;" edge="1" parent="1" source="zh9d74h6_abLfL8RHgGb-4">
          <mxGeometry width="50" height="50" relative="1" as="geometry">
            <mxPoint x="350" y="790" as="sourcePoint" />
            <mxPoint x="483" y="840" as="targetPoint" />
          </mxGeometry>
        </mxCell>
        <mxCell id="zh9d74h6_abLfL8RHgGb-59" value="dealer &amp;gt; 21" style="rhombus;whiteSpace=wrap;html=1;fontSize=14;" vertex="1" parent="1">
          <mxGeometry x="565" y="750" width="110" height="80" as="geometry" />
        </mxCell>
        <mxCell id="zh9d74h6_abLfL8RHgGb-60" value="add 1 random cards to dealer&amp;nbsp;" style="rounded=1;whiteSpace=wrap;html=1;fontSize=14;" vertex="1" parent="1">
          <mxGeometry x="570" y="677" width="100" height="50" as="geometry" />
        </mxCell>
        <mxCell id="zh9d74h6_abLfL8RHgGb-63" value="" style="endArrow=classic;html=1;fontSize=14;entryX=0;entryY=0.5;entryDx=0;entryDy=0;exitX=1;exitY=0.5;exitDx=0;exitDy=0;" edge="1" parent="1" source="zh9d74h6_abLfL8RHgGb-3" target="zh9d74h6_abLfL8RHgGb-60">
          <mxGeometry width="50" height="50" relative="1" as="geometry">
            <mxPoint x="480" y="740" as="sourcePoint" />
            <mxPoint x="530" y="690" as="targetPoint" />
          </mxGeometry>
        </mxCell>
        <mxCell id="zh9d74h6_abLfL8RHgGb-64" value="" style="endArrow=classic;html=1;fontSize=14;entryX=0.5;entryY=0;entryDx=0;entryDy=0;exitX=0.5;exitY=1;exitDx=0;exitDy=0;" edge="1" parent="1" source="zh9d74h6_abLfL8RHgGb-60" target="zh9d74h6_abLfL8RHgGb-59">
          <mxGeometry width="50" height="50" relative="1" as="geometry">
            <mxPoint x="550" y="711.9999999999998" as="sourcePoint" />
            <mxPoint x="580" y="711.9999999999998" as="targetPoint" />
          </mxGeometry>
        </mxCell>
        <mxCell id="zh9d74h6_abLfL8RHgGb-65" value="" style="endArrow=classic;html=1;fontSize=14;entryX=0.5;entryY=0;entryDx=0;entryDy=0;exitX=0.5;exitY=1;exitDx=0;exitDy=0;" edge="1" parent="1" target="zh9d74h6_abLfL8RHgGb-33">
          <mxGeometry width="50" height="50" relative="1" as="geometry">
            <mxPoint x="619.41" y="829.9999999999998" as="sourcePoint" />
            <mxPoint x="619.41" y="853" as="targetPoint" />
          </mxGeometry>
        </mxCell>
        <mxCell id="zh9d74h6_abLfL8RHgGb-66" value="" style="endArrow=none;html=1;fontSize=14;entryX=0;entryY=0.75;entryDx=0;entryDy=0;" edge="1" parent="1" target="zh9d74h6_abLfL8RHgGb-33">
          <mxGeometry width="50" height="50" relative="1" as="geometry">
            <mxPoint x="40" y="900" as="sourcePoint" />
            <mxPoint x="560" y="890" as="targetPoint" />
          </mxGeometry>
        </mxCell>
        <mxCell id="zh9d74h6_abLfL8RHgGb-67" value="" style="endArrow=classic;html=1;fontSize=14;" edge="1" parent="1">
          <mxGeometry width="50" height="50" relative="1" as="geometry">
            <mxPoint x="41.870000000000005" y="900" as="sourcePoint" />
            <mxPoint x="42" y="840" as="targetPoint" />
          </mxGeometry>
        </mxCell>
        <mxCell id="zh9d74h6_abLfL8RHgGb-68" value="" style="endArrow=classic;html=1;fontSize=14;entryX=0;entryY=0.5;entryDx=0;entryDy=0;exitX=1;exitY=0.5;exitDx=0;exitDy=0;" edge="1" parent="1">
          <mxGeometry width="50" height="50" relative="1" as="geometry">
            <mxPoint x="677" y="789.4099999999997" as="sourcePoint" />
            <mxPoint x="707" y="789.4099999999997" as="targetPoint" />
          </mxGeometry>
        </mxCell>
        <mxCell id="zh9d74h6_abLfL8RHgGb-69" value="" style="endArrow=none;html=1;fontSize=14;" edge="1" parent="1">
          <mxGeometry width="50" height="50" relative="1" as="geometry">
            <mxPoint x="704" y="957" as="sourcePoint" />
            <mxPoint x="704" y="790" as="targetPoint" />
          </mxGeometry>
        </mxCell>
        <mxCell id="zh9d74h6_abLfL8RHgGb-70" value="" style="endArrow=classic;html=1;fontSize=14;" edge="1" parent="1">
          <mxGeometry width="50" height="50" relative="1" as="geometry">
            <mxPoint x="706" y="955" as="sourcePoint" />
            <mxPoint x="376" y="955" as="targetPoint" />
          </mxGeometry>
        </mxCell>
        <mxCell id="zh9d74h6_abLfL8RHgGb-71" value="" style="endArrow=none;html=1;fontSize=14;" edge="1" parent="1">
          <mxGeometry width="50" height="50" relative="1" as="geometry">
            <mxPoint x="380" y="957" as="sourcePoint" />
            <mxPoint x="380" y="507" as="targetPoint" />
          </mxGeometry>
        </mxCell>
        <mxCell id="zh9d74h6_abLfL8RHgGb-72" value="" style="endArrow=classic;html=1;fontSize=14;entryX=0;entryY=0.5;entryDx=0;entryDy=0;" edge="1" parent="1" target="7XE_0lH-xWlZTf0cAS5R-47">
          <mxGeometry width="50" height="50" relative="1" as="geometry">
            <mxPoint x="380" y="505" as="sourcePoint" />
            <mxPoint x="430" y="455" as="targetPoint" />
          </mxGeometry>
        </mxCell>
        <mxCell id="zh9d74h6_abLfL8RHgGb-73" value="n" style="text;html=1;resizable=0;autosize=1;align=center;verticalAlign=middle;points=[];fillColor=none;strokeColor=none;rounded=0;fontSize=21;" vertex="1" parent="1">
          <mxGeometry x="670" y="760" width="30" height="30" as="geometry" />
        </mxCell>
        <mxCell id="zh9d74h6_abLfL8RHgGb-74" value="y" style="text;html=1;resizable=0;autosize=1;align=center;verticalAlign=middle;points=[];fillColor=none;strokeColor=none;rounded=0;fontSize=21;" vertex="1" parent="1">
          <mxGeometry x="590" y="840" width="30" height="30" as="geometry" />
        </mxCell>
      </root>
    </mxGraphModel>
  </diagram>
  <diagram id="C86LZQnhHLCqieUkWIfS" name="Page-2">
    <mxGraphModel dx="868" dy="537" grid="1" gridSize="10" guides="1" tooltips="1" connect="1" arrows="1" fold="1" page="1" pageScale="1" pageWidth="850" pageHeight="1100" math="0" shadow="0">
      <root>
        <mxCell id="Y3XAVO--X8VDk9lhIH7w-0" />
        <mxCell id="Y3XAVO--X8VDk9lhIH7w-1" parent="Y3XAVO--X8VDk9lhIH7w-0" />
      </root>
    </mxGraphModel>
  </diagram>
</mxfile>
